# xmcd
#
# Track frame offsets: 
#        150
#        11659
#        25006
#        38111
#        50296
#        61573
#        73749
#        85935
#        99210
#        110623
#        122204
#        135323
#        148730
#        161681
#        173278
#        186529
#        199458
#
# Disc length: 2820 seconds
#
# Revision: 0
# Processed by: cddbd v1.5.2PL0 Copyright (c) Steve Scherf et al.
# Submitted via: ExactAudioCopy v1.1
#
DISCID=e30b0211
DTITLE=Diana Ross and The Supremes - Diana Ross Y The Supremes Sus 50 Me
DTITLE=jores Canciones Disk 2
DYEAR=2016
DGENRE=R&B
TTITLE0=Where Did Our Love Go (Stereo)
TTITLE1=Love Is Like An Itching In My Heart
TTITLE2=Back In My Arms Again (Juke Box Single Version (Stereo))
TTITLE3=Come See About Me (Single Version (Mono))
TTITLE4=These Boots Are Made For Walking
TTITLE5=Hang On Sloopy
TTITLE6=Mother Dear (Album Version (Stereo))
TTITLE7=Nothing But Heartaches (Juke Box Single Version (Stereo))
TTITLE8=Honey Boy (Album Version (Stereo))
TTITLE9=My World Is Empty Without You (Stereo)
TTITLE10=Surfer Boy (2011 Version)
TTITLE11=Hey Western Union Man
TTITLE12=No Matter What Sign You Are (Album Version (Stereo))
TTITLE13=This Old Heart Of Mine (Is Weak For You)
TTITLE14=(I'm So Glad) Heartaches Don't Last Always (Album Version (St
TTITLE14=ereo))
TTITLE15=Take Me Where You Go (Version 1 without strings)
TTITLE16=Who Could Ever Doubt My Love (Album Version (Stereo))
EXTD=
EXTT0=
EXTT1=
EXTT2=
EXTT3=
EXTT4=
EXTT5=
EXTT6=
EXTT7=
EXTT8=
EXTT9=
EXTT10=
EXTT11=
EXTT12=
EXTT13=
EXTT14=
EXTT15=
EXTT16=
PLAYORDER=
